<svg width="1236" height="312" viewBox="0 0 1236 312" fill="none" xmlns="http://www.w3.org/2000/svg">
<path d="M360.069 209.528C360.283 181.128 342.559 157.212 312.665 157.212C283.838 157.212 264.833 180.914 264.833 208.46C264.833 236.433 283.411 260.135 312.665 260.135C332.096 260.135 347.898 250.526 356.866 233.444L348.752 228.746C341.705 241.985 329.32 251.167 313.946 251.167C291.098 251.167 273.802 234.511 274.442 209.528H360.069ZM274.442 200.559C276.15 181.982 292.806 166.18 312.878 166.18C333.164 166.18 348.111 182.409 350.46 200.559H274.442ZM422.157 251.167C398.242 251.167 383.294 230.668 383.294 208.033C383.294 186.68 398.882 166.18 421.517 166.18C445.433 166.18 461.021 184.117 461.021 206.965C461.021 230.668 447.354 251.167 422.157 251.167ZM460.38 258H469.989V81.8346H460.38V176.43H459.953C451.625 164.045 437.105 157.212 421.944 157.212C392.263 157.212 373.685 179.206 373.685 208.033C373.685 236.86 392.476 260.135 422.371 260.135C436.891 260.135 452.693 252.875 459.953 240.277H460.38V258ZM513.761 156.446L540.036 213.479L566.206 156.446H592.585L539.827 264.986L487.486 156.446H513.761ZM697.267 212.749H624.49C625.116 221.09 627.826 227.729 632.623 232.664C637.419 237.529 643.57 239.962 651.077 239.962C656.916 239.962 661.747 238.572 665.57 235.792C669.324 233.011 673.599 227.868 678.395 220.36L698.205 231.413C695.147 236.626 691.914 241.109 688.508 244.863C685.102 248.547 681.453 251.605 677.561 254.038C673.668 256.401 669.463 258.139 664.945 259.251C660.426 260.363 655.526 260.919 650.243 260.919C635.09 260.919 622.926 256.054 613.751 246.322C604.575 236.521 599.988 223.523 599.988 207.327C599.988 191.271 604.436 178.272 613.334 168.332C622.3 158.532 634.187 153.631 648.992 153.631C663.937 153.631 675.753 158.393 684.442 167.915C693.061 177.369 697.371 190.471 697.371 207.223L697.267 212.749ZM673.181 193.564C669.915 181.053 662.025 174.797 649.513 174.797C646.664 174.797 643.987 175.249 641.485 176.152C638.983 176.986 636.689 178.238 634.604 179.906C632.588 181.505 630.85 183.451 629.39 185.745C627.931 188.038 626.819 190.645 626.054 193.564H673.181ZM723.02 156.446H746.584V165.83C754.786 157.697 764.031 153.631 774.318 153.631C786.135 153.631 795.345 157.35 801.948 164.787C807.648 171.113 810.498 181.435 810.498 195.754V258H786.934V201.28C786.934 191.271 785.544 184.354 782.764 180.531C780.053 176.639 775.117 174.693 767.958 174.693C760.173 174.693 754.647 177.264 751.38 182.408C748.182 187.482 746.584 196.345 746.584 208.996V258H723.02V156.446ZM864.403 178.342V258H840.943V178.342H830.934V156.446H840.943V119.224H864.403V156.446H882.649V178.342H864.403ZM922.061 156.446V214.73C922.061 231.552 928.699 239.962 941.976 239.962C955.252 239.962 961.89 231.552 961.89 214.73V156.446H985.35V215.252C985.35 223.384 984.342 230.405 982.326 236.313C980.38 241.596 977.008 246.357 972.212 250.597C964.288 257.479 954.209 260.919 941.976 260.919C929.811 260.919 919.767 257.479 911.843 250.597C906.977 246.357 903.537 241.596 901.521 236.313C899.575 231.586 898.601 224.566 898.601 215.252V156.446H922.061ZM1014.96 156.446H1038.42V165.517C1042.73 160.999 1046.55 157.906 1049.89 156.238C1053.3 154.5 1057.33 153.631 1061.98 153.631C1068.17 153.631 1074.63 155.647 1081.38 159.679L1070.64 181.157C1066.19 177.96 1061.85 176.361 1057.6 176.361C1044.82 176.361 1038.42 186.023 1038.42 205.346V258H1014.96V156.446ZM1185.85 212.749H1113.07C1113.7 221.09 1116.41 227.729 1121.21 232.664C1126 237.529 1132.15 239.962 1139.66 239.962C1145.5 239.962 1150.33 238.572 1154.15 235.792C1157.91 233.011 1162.18 227.868 1166.98 220.36L1186.79 231.413C1183.73 236.626 1180.5 241.109 1177.09 244.863C1173.69 248.547 1170.04 251.605 1166.14 254.038C1162.25 256.401 1158.05 258.139 1153.53 259.251C1149.01 260.363 1144.11 260.919 1138.83 260.919C1123.67 260.919 1111.51 256.054 1102.33 246.322C1093.16 236.521 1088.57 223.523 1088.57 207.327C1088.57 191.271 1093.02 178.272 1101.92 168.332C1110.88 158.532 1122.77 153.631 1137.58 153.631C1152.52 153.631 1164.34 158.393 1173.03 167.915C1181.65 177.369 1185.95 190.471 1185.95 207.223L1185.85 212.749ZM1161.77 193.564C1158.5 181.053 1150.61 174.797 1138.1 174.797C1135.25 174.797 1132.57 175.249 1130.07 176.152C1127.57 176.986 1125.27 178.238 1123.19 179.906C1121.17 181.505 1119.43 183.451 1117.97 185.745C1116.51 188.038 1115.4 190.645 1114.64 193.564H1161.77Z" fill="black"/>
<path d="M360.069 209.528V210.595H361.129L361.137 209.536L360.069 209.528ZM356.866 233.444L357.811 233.94L358.288 233.033L357.401 232.52L356.866 233.444ZM348.752 228.746L349.287 227.822L348.329 227.268L347.809 228.244L348.752 228.746ZM274.442 209.528V208.46H273.401L273.375 209.5L274.442 209.528ZM274.442 200.559L273.379 200.462L273.272 201.627H274.442V200.559ZM350.46 200.559V201.627H351.675L351.519 200.422L350.46 200.559ZM361.137 209.536C361.245 195.118 356.801 181.779 348.469 172.026C340.123 162.257 327.921 156.144 312.665 156.144V158.28C327.303 158.28 338.91 164.125 346.846 173.413C354.796 182.719 359.107 195.537 359.002 209.52L361.137 209.536ZM312.665 156.144C283.136 156.144 263.765 180.443 263.765 208.46H265.901C265.901 181.386 284.539 158.28 312.665 158.28V156.144ZM263.765 208.46C263.765 236.892 282.698 261.203 312.665 261.203V259.068C284.123 259.068 265.901 235.975 265.901 208.46H263.765ZM312.665 261.203C332.494 261.203 348.659 251.373 357.811 233.94L355.921 232.947C347.137 249.679 331.699 259.068 312.665 259.068V261.203ZM357.401 232.52L349.287 227.822L348.217 229.67L356.331 234.368L357.401 232.52ZM347.809 228.244C340.908 241.21 328.847 250.099 313.946 250.099V252.235C329.793 252.235 342.502 242.76 349.694 229.248L347.809 228.244ZM313.946 250.099C302.787 250.099 293.034 246.036 286.15 238.971C279.269 231.909 275.196 221.786 275.509 209.555L273.375 209.5C273.048 222.253 277.302 232.95 284.621 240.461C291.938 247.97 302.257 252.235 313.946 252.235V250.099ZM274.442 210.595H360.069V208.46H274.442V210.595ZM275.505 200.657C277.163 182.631 293.356 167.248 312.878 167.248V165.113C292.256 165.113 275.138 181.333 273.379 200.462L275.505 200.657ZM312.878 167.248C332.543 167.248 347.11 182.99 349.401 200.696L351.519 200.422C349.113 181.828 333.785 165.113 312.878 165.113V167.248ZM350.46 199.492H274.442V201.627H350.46V199.492ZM460.38 258H459.312V259.068H460.38V258ZM469.989 258V259.068H471.057V258H469.989ZM469.989 81.8346H471.057V80.7669H469.989V81.8346ZM460.38 81.8346V80.7669H459.312V81.8346H460.38ZM460.38 176.43V177.498H461.448V176.43H460.38ZM459.953 176.43L459.067 177.026L459.384 177.498H459.953V176.43ZM459.953 240.277V239.209H459.336L459.028 239.744L459.953 240.277ZM460.38 240.277H461.448V239.209H460.38V240.277ZM422.157 250.099C398.992 250.099 384.362 230.253 384.362 208.033H382.227C382.227 231.083 397.491 252.235 422.157 252.235V250.099ZM384.362 208.033C384.362 187.116 399.614 167.248 421.517 167.248V165.113C398.15 165.113 382.227 186.243 382.227 208.033H384.362ZM421.517 167.248C444.78 167.248 459.953 184.642 459.953 206.965H462.088C462.088 183.593 446.085 165.113 421.517 165.113V167.248ZM459.953 206.965C459.953 218.623 456.591 229.421 450.209 237.282C443.846 245.118 434.436 250.099 422.157 250.099V252.235C435.076 252.235 445.097 246.966 451.867 238.627C458.617 230.313 462.088 219.01 462.088 206.965H459.953ZM460.38 259.068H469.989V256.932H460.38V259.068ZM471.057 258V81.8346H468.921V258H471.057ZM469.989 80.7669H460.38V82.9023H469.989V80.7669ZM459.312 81.8346V176.43H461.448V81.8346H459.312ZM460.38 175.362H459.953V177.498H460.38V175.362ZM460.839 175.834C452.287 163.117 437.412 156.144 421.944 156.144V158.28C436.797 158.28 450.963 164.974 459.067 177.026L460.839 175.834ZM421.944 156.144C406.824 156.144 394.467 161.754 385.898 171.09C377.337 180.417 372.618 193.392 372.618 208.033H374.753C374.753 193.847 379.322 181.412 387.471 172.534C395.61 163.667 407.383 158.28 421.944 158.28V156.144ZM372.618 208.033C372.618 237.336 391.779 261.203 422.371 261.203V259.068C393.174 259.068 374.753 236.385 374.753 208.033H372.618ZM422.371 261.203C437.18 261.203 453.385 253.812 460.878 240.81L459.028 239.744C452.001 251.938 436.602 259.068 422.371 259.068V261.203ZM459.953 241.344H460.38V239.209H459.953V241.344ZM459.312 240.277V258H461.448V240.277H459.312ZM513.761 156.446L514.731 156L514.445 155.379H513.761V156.446ZM540.036 213.479L539.066 213.926L540.038 216.035L541.006 213.924L540.036 213.479ZM566.206 156.446V155.379H565.521L565.236 156.001L566.206 156.446ZM592.585 156.446L593.545 156.913L594.291 155.379H592.585V156.446ZM539.827 264.986L538.865 265.449L539.823 267.436L540.787 265.452L539.827 264.986ZM487.486 156.446V155.379H485.786L486.525 156.91L487.486 156.446ZM512.791 156.893L539.066 213.926L541.005 213.032L514.731 156L512.791 156.893ZM541.006 213.924L567.176 156.892L565.236 156.001L539.065 213.034L541.006 213.924ZM566.206 157.514H592.585V155.379H566.206V157.514ZM591.625 155.98L538.867 264.519L540.787 265.452L593.545 156.913L591.625 155.98ZM540.789 264.522L488.448 155.983L486.525 156.91L538.865 265.449L540.789 264.522ZM487.486 157.514H513.761V155.379H487.486V157.514ZM697.267 212.749V213.817H698.314L698.334 212.769L697.267 212.749ZM624.49 212.749V211.682H623.339L623.425 212.829L624.49 212.749ZM632.623 232.664L631.857 233.408L631.862 233.413L632.623 232.664ZM665.57 235.792L666.198 236.655L666.206 236.65L665.57 235.792ZM678.395 220.36L678.915 219.428L678.037 218.938L677.495 219.786L678.395 220.36ZM698.205 231.413L699.126 231.953L699.678 231.012L698.725 230.48L698.205 231.413ZM688.508 244.863L689.292 245.587L689.299 245.58L688.508 244.863ZM677.561 254.038L678.115 254.951L678.126 254.943L677.561 254.038ZM613.751 246.322L612.971 247.052L612.974 247.055L613.751 246.322ZM613.334 168.332L612.546 167.612L612.538 167.62L613.334 168.332ZM684.442 167.915L685.231 167.196L685.231 167.196L684.442 167.915ZM697.371 207.223L698.438 207.243L698.439 207.233V207.223H697.371ZM673.181 193.564V194.632H674.564L674.215 193.295L673.181 193.564ZM641.485 176.152L641.823 177.165L641.835 177.161L641.848 177.157L641.485 176.152ZM634.604 179.906L635.267 180.742L635.271 180.74L634.604 179.906ZM626.054 193.564L625.021 193.294L624.671 194.632H626.054V193.564ZM697.267 211.682H624.49V213.817H697.267V211.682ZM623.425 212.829C624.065 221.364 626.851 228.257 631.857 233.408L633.388 231.92C628.802 227.2 626.166 220.817 625.555 212.669L623.425 212.829ZM631.862 233.413C636.88 238.504 643.316 241.03 651.077 241.03V238.895C643.825 238.895 637.958 236.555 633.383 231.914L631.862 233.413ZM651.077 241.03C657.088 241.03 662.153 239.597 666.198 236.655L664.942 234.928C661.341 237.547 656.744 238.895 651.077 238.895V241.03ZM666.206 236.65C670.12 233.75 674.48 228.471 679.294 220.935L677.495 219.786C672.717 227.264 668.527 232.273 664.935 234.934L666.206 236.65ZM677.875 221.293L697.685 232.345L698.725 230.48L678.915 219.428L677.875 221.293ZM697.284 230.872C694.256 236.034 691.066 240.455 687.718 244.145L689.299 245.58C692.763 241.763 696.037 237.218 699.126 231.953L697.284 230.872ZM687.724 244.138C684.377 247.759 680.8 250.754 676.995 253.133L678.126 254.943C682.106 252.456 685.828 249.335 689.292 245.587L687.724 244.138ZM677.007 253.125C673.209 255.431 669.104 257.128 664.689 258.214L665.2 260.288C669.821 259.15 674.127 257.371 678.115 254.951L677.007 253.125ZM664.689 258.214C660.265 259.304 655.451 259.852 650.243 259.852V261.987C655.601 261.987 660.588 261.423 665.2 260.288L664.689 258.214ZM650.243 259.852C635.341 259.852 623.473 255.078 614.528 245.59L612.974 247.055C622.379 257.03 634.839 261.987 650.243 261.987V259.852ZM614.53 245.593C605.577 236.029 601.055 223.311 601.055 207.327H598.92C598.92 223.735 603.574 237.014 612.971 247.052L614.53 245.593ZM601.055 207.327C601.055 191.477 605.441 178.75 614.129 169.045L612.538 167.62C603.431 177.794 598.92 191.064 598.92 207.327H601.055ZM614.121 169.053C622.861 159.5 634.448 154.699 648.992 154.699V152.564C633.925 152.564 621.739 157.563 612.546 167.612L614.121 169.053ZM648.992 154.699C663.689 154.699 675.2 159.37 683.653 168.635L685.231 167.196C676.307 157.415 664.184 152.564 648.992 152.564V154.699ZM683.653 168.635C692.043 177.837 696.303 190.653 696.303 207.223H698.439C698.439 190.29 694.079 176.901 685.231 167.196L683.653 168.635ZM696.303 207.203L696.199 212.729L698.334 212.769L698.438 207.243L696.303 207.203ZM674.215 193.295C672.539 186.879 669.65 181.96 665.478 178.652C661.302 175.341 655.95 173.729 649.513 173.729V175.865C655.588 175.865 660.437 177.38 664.151 180.325C667.868 183.273 670.557 187.738 672.148 193.834L674.215 193.295ZM649.513 173.729C646.549 173.729 643.749 174.2 641.122 175.148L641.848 177.157C644.226 176.298 646.778 175.865 649.513 175.865V173.729ZM641.147 175.139C638.524 176.014 636.119 177.326 633.937 179.072L635.271 180.74C637.259 179.149 639.441 177.959 641.823 177.165L641.147 175.139ZM633.94 179.069C631.826 180.746 630.01 182.783 628.49 185.171L630.291 186.318C631.691 184.119 633.35 182.263 635.267 180.742L633.94 179.069ZM628.49 185.171C626.964 187.568 625.811 190.279 625.021 193.294L627.087 193.835C627.826 191.011 628.897 188.509 630.291 186.318L628.49 185.171ZM626.054 194.632H673.181V192.497H626.054V194.632ZM723.02 156.446V155.379H721.952V156.446H723.02ZM746.584 156.446H747.651V155.379H746.584V156.446ZM746.584 165.83H745.516V168.392L747.335 166.588L746.584 165.83ZM801.948 164.787L801.15 165.496L801.155 165.502L801.948 164.787ZM810.498 258V259.068H811.566V258H810.498ZM786.934 258H785.866V259.068H786.934V258ZM782.764 180.531L781.887 181.142L781.894 181.151L781.9 181.159L782.764 180.531ZM751.38 182.408L750.479 181.836L750.477 181.839L751.38 182.408ZM746.584 258V259.068H747.651V258H746.584ZM723.02 258H721.952V259.068H723.02V258ZM723.02 157.514H746.584V155.379H723.02V157.514ZM745.516 156.446V165.83H747.651V156.446H745.516ZM747.335 166.588C755.364 158.627 764.348 154.699 774.318 154.699V152.564C763.714 152.564 754.207 156.768 745.832 165.072L747.335 166.588ZM774.318 154.699C785.892 154.699 794.787 158.33 801.15 165.496L802.747 164.079C795.902 156.37 786.377 152.564 774.318 152.564V154.699ZM801.155 165.502C806.592 171.535 809.43 181.532 809.43 195.754H811.566C811.566 181.338 808.705 170.69 802.741 164.073L801.155 165.502ZM809.43 195.754V258H811.566V195.754H809.43ZM810.498 256.932H786.934V259.068H810.498V256.932ZM788.002 258V201.28H785.866V258H788.002ZM788.002 201.28C788.002 191.249 786.624 184.024 783.627 179.903L781.9 181.159C784.464 184.685 785.866 191.292 785.866 201.28H788.002ZM783.64 179.921C780.642 175.617 775.28 173.625 767.958 173.625V175.76C774.955 175.76 779.463 177.661 781.887 181.142L783.64 179.921ZM767.958 173.625C759.923 173.625 753.996 176.298 750.479 181.836L752.281 182.981C755.298 178.231 760.423 175.76 767.958 175.76V173.625ZM750.477 181.839C747.105 187.189 745.516 196.322 745.516 208.996H747.651C747.651 196.367 749.26 187.776 752.283 182.977L750.477 181.839ZM745.516 208.996V258H747.651V208.996H745.516ZM746.584 256.932H723.02V259.068H746.584V256.932ZM724.088 258V156.446H721.952V258H724.088ZM864.403 178.342V177.274H863.335V178.342H864.403ZM864.403 258V259.068H865.47V258H864.403ZM840.943 258H839.876V259.068H840.943V258ZM840.943 178.342H842.011V177.274H840.943V178.342ZM830.934 178.342H829.866V179.41H830.934V178.342ZM830.934 156.446V155.379H829.866V156.446H830.934ZM840.943 156.446V157.514H842.011V156.446H840.943ZM840.943 119.224V118.156H839.876V119.224H840.943ZM864.403 119.224H865.47V118.156H864.403V119.224ZM864.403 156.446H863.335V157.514H864.403V156.446ZM882.649 156.446H883.717V155.379H882.649V156.446ZM882.649 178.342V179.41H883.717V178.342H882.649ZM863.335 178.342V258H865.47V178.342H863.335ZM864.403 256.932H840.943V259.068H864.403V256.932ZM842.011 258V178.342H839.876V258H842.011ZM840.943 177.274H830.934V179.41H840.943V177.274ZM832.001 178.342V156.446H829.866V178.342H832.001ZM830.934 157.514H840.943V155.379H830.934V157.514ZM842.011 156.446V119.224H839.876V156.446H842.011ZM840.943 120.292H864.403V118.156H840.943V120.292ZM863.335 119.224V156.446H865.47V119.224H863.335ZM864.403 157.514H882.649V155.379H864.403V157.514ZM881.581 156.446V178.342H883.717V156.446H881.581ZM882.649 177.274H864.403V179.41H882.649V177.274ZM922.061 156.446H923.129V155.379H922.061V156.446ZM961.89 156.446V155.379H960.822V156.446H961.89ZM985.35 156.446H986.417V155.379H985.35V156.446ZM982.326 236.313L983.328 236.682L983.332 236.67L983.336 236.658L982.326 236.313ZM972.212 250.597L972.912 251.403L972.919 251.397L972.212 250.597ZM911.843 250.597L911.142 251.402L911.143 251.403L911.843 250.597ZM901.521 236.313L902.518 235.932L902.513 235.919L902.508 235.906L901.521 236.313ZM898.601 156.446V155.379H897.534V156.446H898.601ZM920.993 156.446V214.73H923.129V156.446H920.993ZM920.993 214.73C920.993 223.252 922.67 229.841 926.202 234.316C929.771 238.838 935.097 241.03 941.976 241.03V238.895C935.578 238.895 930.946 236.881 927.878 232.993C924.771 229.057 923.129 223.029 923.129 214.73H920.993ZM941.976 241.03C948.854 241.03 954.18 238.838 957.75 234.316C961.281 229.841 962.958 223.252 962.958 214.73H960.822C960.822 223.029 959.18 229.057 956.073 232.993C953.005 236.881 948.373 238.895 941.976 238.895V241.03ZM962.958 214.73V156.446H960.822V214.73H962.958ZM961.89 157.514H985.35V155.379H961.89V157.514ZM984.282 156.446V215.252H986.417V156.446H984.282ZM984.282 215.252C984.282 223.3 983.284 230.199 981.315 235.968L983.336 236.658C985.4 230.611 986.417 223.468 986.417 215.252H984.282ZM981.324 235.944C979.447 241.039 976.187 245.658 971.505 249.797L972.919 251.397C977.83 247.056 981.312 242.152 983.328 236.682L981.324 235.944ZM971.512 249.791C963.814 256.477 953.997 259.852 941.976 259.852V261.987C954.421 261.987 964.762 258.481 972.912 251.403L971.512 249.791ZM941.976 259.852C930.025 259.852 920.243 256.477 912.543 249.791L911.143 251.403C919.292 258.48 929.597 261.987 941.976 261.987V259.852ZM912.545 249.792C907.792 245.651 904.463 241.03 902.518 235.932L900.523 236.694C902.61 242.162 906.163 247.063 911.142 251.402L912.545 249.792ZM902.508 235.906C900.642 231.375 899.669 224.522 899.669 215.252H897.534C897.534 224.61 898.507 231.798 900.534 236.719L902.508 235.906ZM899.669 215.252V156.446H897.534V215.252H899.669ZM898.601 157.514H922.061V155.379H898.601V157.514ZM1014.96 156.446V155.379H1013.89V156.446H1014.96ZM1038.42 156.446H1039.49V155.379H1038.42V156.446ZM1038.42 165.517H1037.35V168.184L1039.19 166.254L1038.42 165.517ZM1049.89 156.238L1050.37 157.193L1050.37 157.189L1049.89 156.238ZM1081.38 159.679L1082.33 160.156L1082.78 159.27L1081.93 158.762L1081.38 159.679ZM1070.64 181.157L1070.01 182.024L1071.03 182.755L1071.59 181.634L1070.64 181.157ZM1038.42 258V259.068H1039.49V258H1038.42ZM1014.96 258H1013.89V259.068H1014.96V258ZM1014.96 157.514H1038.42V155.379H1014.96V157.514ZM1037.35 156.446V165.517H1039.49V156.446H1037.35ZM1039.19 166.254C1043.47 161.774 1047.19 158.781 1050.37 157.193L1049.41 155.283C1045.92 157.031 1041.99 160.225 1037.65 164.78L1039.19 166.254ZM1050.37 157.189C1053.6 155.543 1057.46 154.699 1061.98 154.699V152.564C1057.19 152.564 1052.99 153.457 1049.4 155.287L1050.37 157.189ZM1061.98 154.699C1067.93 154.699 1074.21 156.636 1080.83 160.595L1081.93 158.762C1075.06 154.658 1068.41 152.564 1061.98 152.564V154.699ZM1080.42 159.201L1069.68 180.68L1071.59 181.634L1082.33 160.156L1080.42 159.201ZM1071.26 180.29C1066.68 177 1062.13 175.293 1057.6 175.293V177.429C1061.56 177.429 1065.69 178.919 1070.01 182.024L1071.26 180.29ZM1057.6 175.293C1050.9 175.293 1045.74 177.853 1042.33 183.018C1038.96 188.105 1037.35 195.601 1037.35 205.346H1039.49C1039.49 195.768 1041.08 188.771 1044.11 184.197C1047.08 179.699 1051.52 177.429 1057.6 177.429V175.293ZM1037.35 205.346V258H1039.49V205.346H1037.35ZM1038.42 256.932H1014.96V259.068H1038.42V256.932ZM1016.03 258V156.446H1013.89V258H1016.03ZM1185.85 212.749V213.817H1186.9L1186.92 212.769L1185.85 212.749ZM1113.07 212.749V211.682H1111.92L1112.01 212.829L1113.07 212.749ZM1121.21 232.664L1120.44 233.408L1120.45 233.413L1121.21 232.664ZM1154.15 235.792L1154.78 236.655L1154.79 236.65L1154.15 235.792ZM1166.98 220.36L1167.5 219.428L1166.62 218.938L1166.08 219.786L1166.98 220.36ZM1186.79 231.413L1187.71 231.953L1188.26 231.012L1187.31 230.48L1186.79 231.413ZM1177.09 244.863L1177.88 245.587L1177.88 245.58L1177.09 244.863ZM1166.14 254.038L1166.7 254.951L1166.71 254.943L1166.14 254.038ZM1102.33 246.322L1101.56 247.052L1101.56 247.055L1102.33 246.322ZM1101.92 168.332L1101.13 167.612L1101.12 167.62L1101.92 168.332ZM1173.03 167.915L1173.81 167.196L1173.81 167.196L1173.03 167.915ZM1185.95 207.223L1187.02 207.243L1187.02 207.233V207.223H1185.95ZM1161.77 193.564V194.632H1163.15L1162.8 193.295L1161.77 193.564ZM1130.07 176.152L1130.41 177.165L1130.42 177.161L1130.43 177.157L1130.07 176.152ZM1123.19 179.906L1123.85 180.742L1123.85 180.74L1123.19 179.906ZM1114.64 193.564L1113.6 193.294L1113.25 194.632H1114.64V193.564ZM1185.85 211.682H1113.07V213.817H1185.85V211.682ZM1112.01 212.829C1112.65 221.364 1115.43 228.257 1120.44 233.408L1121.97 231.92C1117.39 227.2 1114.75 220.817 1114.14 212.669L1112.01 212.829ZM1120.45 233.413C1125.46 238.504 1131.9 241.03 1139.66 241.03V238.895C1132.41 238.895 1126.54 236.555 1121.97 231.914L1120.45 233.413ZM1139.66 241.03C1145.67 241.03 1150.74 239.597 1154.78 236.655L1153.53 234.928C1149.92 237.547 1145.33 238.895 1139.66 238.895V241.03ZM1154.79 236.65C1158.7 233.75 1163.06 228.471 1167.88 220.935L1166.08 219.786C1161.3 227.264 1157.11 232.273 1153.52 234.934L1154.79 236.65ZM1166.46 221.293L1186.27 232.345L1187.31 230.48L1167.5 219.428L1166.46 221.293ZM1185.87 230.872C1182.84 236.034 1179.65 240.455 1176.3 244.145L1177.88 245.58C1181.35 241.763 1184.62 237.218 1187.71 231.953L1185.87 230.872ZM1176.31 244.138C1172.96 247.759 1169.38 250.754 1165.58 253.133L1166.71 254.943C1170.69 252.456 1174.41 249.335 1177.88 245.587L1176.31 244.138ZM1165.59 253.125C1161.79 255.431 1157.69 257.128 1153.27 258.214L1153.78 260.288C1158.4 259.15 1162.71 257.371 1166.7 254.951L1165.59 253.125ZM1153.27 258.214C1148.85 259.304 1144.04 259.852 1138.83 259.852V261.987C1144.18 261.987 1149.17 261.423 1153.78 260.288L1153.27 258.214ZM1138.83 259.852C1123.93 259.852 1112.06 255.078 1103.11 245.59L1101.56 247.055C1110.96 257.03 1123.42 261.987 1138.83 261.987V259.852ZM1103.11 245.593C1094.16 236.029 1089.64 223.311 1089.64 207.327H1087.5C1087.5 223.735 1092.16 237.014 1101.56 247.052L1103.11 245.593ZM1089.64 207.327C1089.64 191.477 1094.03 178.75 1102.71 169.045L1101.12 167.62C1092.02 177.794 1087.5 191.064 1087.5 207.327H1089.64ZM1102.71 169.053C1111.45 159.5 1123.03 154.699 1137.58 154.699V152.564C1122.51 152.564 1110.32 157.563 1101.13 167.612L1102.71 169.053ZM1137.58 154.699C1152.27 154.699 1163.78 159.37 1172.24 168.635L1173.81 167.196C1164.89 157.415 1152.77 152.564 1137.58 152.564V154.699ZM1172.24 168.635C1180.63 177.837 1184.89 190.653 1184.89 207.223H1187.02C1187.02 190.29 1182.66 176.901 1173.81 167.196L1172.24 168.635ZM1184.89 207.203L1184.78 212.729L1186.92 212.769L1187.02 207.243L1184.89 207.203ZM1162.8 193.295C1161.12 186.879 1158.23 181.96 1154.06 178.652C1149.89 175.341 1144.53 173.729 1138.1 173.729V175.865C1144.17 175.865 1149.02 177.38 1152.73 180.325C1156.45 183.273 1159.14 187.738 1160.73 193.834L1162.8 193.295ZM1138.1 173.729C1135.13 173.729 1132.33 174.2 1129.71 175.148L1130.43 177.157C1132.81 176.298 1135.36 175.865 1138.1 175.865V173.729ZM1129.73 175.139C1127.11 176.014 1124.7 177.326 1122.52 179.072L1123.85 180.74C1125.84 179.149 1128.03 177.959 1130.41 177.165L1129.73 175.139ZM1122.52 179.069C1120.41 180.746 1118.59 182.783 1117.07 185.171L1118.87 186.318C1120.27 184.119 1121.93 182.263 1123.85 180.742L1122.52 179.069ZM1117.07 185.171C1115.55 187.568 1114.39 190.279 1113.6 193.294L1115.67 193.835C1116.41 191.011 1117.48 188.509 1118.87 186.318L1117.07 185.171ZM1114.64 194.632H1161.77V192.497H1114.64V194.632Z" fill="black"/>
<g style="mix-blend-mode:darken" opacity="0.8">
<path d="M233.675 99.8675C243.959 85.6326 228.651 67.0089 212.694 74.3423L54.2169 147.177C38.693 154.312 42.0996 177.298 59.0256 179.623L151.518 192.33C160.119 193.512 168.671 189.852 173.755 182.814L233.675 99.8675Z" fill="#0D25B9"/>
</g>
<path d="M105.295 195.867C111.193 196.55 115.849 201.194 116.545 207.09L118.605 224.519C119.318 230.551 115.698 236.254 109.936 238.176L80.7887 247.899C70.7844 251.236 61.2578 241.732 64.5713 231.72L74.2249 202.55C76.1332 196.784 81.8281 193.15 87.8617 193.848L105.295 195.867Z" fill="#E7AB10"/>
<g style="mix-blend-mode:darken">
<path d="M209.271 76.4093C223.226 65.477 242.541 80.4128 235.471 96.6698L166.323 255.672C159.441 271.497 136.108 268.3 133.737 251.206L121.127 160.297C119.978 152.01 123.323 143.738 129.908 138.579L209.271 76.4093Z" fill="#E62F55" fill-opacity="0.8"/>
</g>
</svg>
